<svg width="80" height="47" fill="none" xmlns="http://www.w3.org/2000/svg"><path d="M11.777 2.203H6.926V18H5.578V2.203H.738V.938h11.04v1.265zm8.063 8.695h-3.985V18h-1.347V.937h4.676c1.554 0 2.757.446 3.609 1.336.86.883 1.289 2.114 1.289 3.692 0 1.101-.266 2.07-.797 2.906-.531.828-1.246 1.402-2.144 1.723l3.55 7.254V18h-1.43l-3.421-7.102zm-3.985-1.242h3.563c1.008 0 1.813-.344 2.414-1.031.602-.695.902-1.582.902-2.66 0-1.195-.312-2.121-.937-2.777-.625-.657-1.5-.985-2.625-.985h-3.317v7.453zM37.642.937v12.106c-.008 1.648-.453 2.926-1.336 3.832-.875.906-2.121 1.36-3.739 1.36-1.64 0-2.898-.446-3.773-1.337-.867-.898-1.3-2.199-1.3-3.902V.937h1.335V12.95c0 2.696 1.246 4.043 3.738 4.043 2.453 0 3.696-1.308 3.727-3.926V.937h1.348zm11.73 8.895H42.75v6.926h7.617V18h-8.953V.937h8.895v1.266H42.75V8.59h6.621v1.242zm-39.34 31.973c0-.953-.273-1.703-.82-2.25-.54-.547-1.55-1.07-3.035-1.57s-2.574-1.06-3.27-1.676c-.914-.805-1.37-1.868-1.37-3.188 0-1.305.448-2.367 1.347-3.187.898-.82 2.058-1.23 3.48-1.23 1.453 0 2.64.476 3.563 1.429.922.953 1.383 2.18 1.383 3.68H9.96c0-1.149-.324-2.075-.973-2.778-.64-.71-1.515-1.066-2.625-1.066-1.078 0-1.93.293-2.554.879-.618.578-.926 1.328-.926 2.25 0 .859.293 1.562.879 2.109.586.547 1.52 1.035 2.8 1.465 1.282.422 2.25.863 2.907 1.324.656.453 1.14.988 1.453 1.606.312.617.469 1.343.469 2.18 0 1.335-.454 2.413-1.36 3.234-.898.812-2.09 1.218-3.574 1.218-1 0-1.914-.203-2.742-.609a4.704 4.704 0 01-1.934-1.77c-.46-.773-.691-1.683-.691-2.73h1.336c0 1.203.363 2.148 1.09 2.836.726.687 1.707 1.031 2.941 1.031 1.078 0 1.941-.289 2.59-.867.656-.578.984-1.352.984-2.32zm14.637-1.125c-.125 1.914-.64 3.32-1.547 4.218-.906.891-2.16 1.336-3.762 1.336-1.648 0-2.949-.62-3.902-1.863-.953-1.25-1.434-2.945-1.441-5.086v-3.703c0-2.148.484-3.832 1.453-5.05.976-1.22 2.308-1.829 3.996-1.829 1.594 0 2.828.457 3.703 1.371.875.914 1.375 2.317 1.5 4.207h-1.36c-.124-1.547-.492-2.652-1.101-3.316-.602-.664-1.516-.996-2.742-.996-1.29 0-2.293.48-3.012 1.441-.719.961-1.078 2.356-1.078 4.184v3.656c0 1.813.348 3.223 1.043 4.23.695 1.008 1.676 1.512 2.941 1.512 1.328 0 2.29-.332 2.883-.996.594-.664.95-1.77 1.067-3.316h1.359zM38.707 46h-1.348v-8.168h-8.015V46h-1.336V28.937h1.336v7.653h8.015v-7.653h1.348V46zm14.648-6.68c0 2.203-.484 3.907-1.453 5.11-.96 1.203-2.312 1.804-4.054 1.804-1.727 0-3.082-.601-4.067-1.804-.976-1.203-1.468-2.895-1.476-5.075v-3.714c0-2.196.488-3.899 1.465-5.11.976-1.218 2.328-1.828 4.054-1.828 1.75 0 3.11.61 4.078 1.828.97 1.219 1.453 2.934 1.453 5.145v3.644zm-1.347-3.703c0-1.867-.36-3.27-1.078-4.207-.72-.937-1.754-1.406-3.106-1.406-1.304 0-2.324.46-3.058 1.383-.735.914-1.11 2.285-1.125 4.113v3.82c0 1.875.37 3.285 1.113 4.23.742.938 1.773 1.407 3.094 1.407 1.359 0 2.39-.469 3.093-1.406.711-.938 1.067-2.348 1.067-4.23v-3.704zm15.504 3.703c0 2.203-.485 3.907-1.453 5.11-.961 1.203-2.313 1.804-4.055 1.804-1.727 0-3.082-.601-4.066-1.804-.977-1.203-1.47-2.895-1.477-5.075v-3.714c0-2.196.488-3.899 1.465-5.11.976-1.218 2.328-1.828 4.054-1.828 1.75 0 3.11.61 4.079 1.828.968 1.219 1.453 2.934 1.453 5.145v3.644zm-1.348-3.703c0-1.867-.36-3.27-1.078-4.207-.719-.937-1.754-1.406-3.105-1.406-1.305 0-2.325.46-3.06 1.383-.733.914-1.108 2.285-1.124 4.113v3.82c0 1.875.371 3.285 1.113 4.23.742.938 1.774 1.407 3.094 1.407 1.36 0 2.39-.469 3.094-1.406.71-.938 1.066-2.348 1.066-4.23v-3.704zm6.27 9.14h7.03V46h-8.378V28.937h1.348v15.82z" fill="#fff"/></svg>