<svg width="38" height="28" fill="none" xmlns="http://www.w3.org/2000/svg"><path d="M18.999 27.804h-.01c-1.147-.008-11.284-.1-14.156-.877a5.873 5.873 0 01-4.132-4.13c-.752-2.82-.704-8.252-.699-8.686-.005-.432-.053-5.908.696-8.753l.003-.008c.535-1.984 2.155-3.616 4.127-4.157l.015-.004C7.683.443 17.84.352 18.988.344h.021c1.15.008 11.313.1 14.159.878a5.872 5.872 0 014.127 4.123c.78 2.847.708 8.335.7 8.798.005.457.05 5.84-.696 8.675l-.002.008a5.874 5.874 0 01-4.135 4.13l-.008.003c-2.84.746-12.996.837-14.145.845H19zM3.569 6.12c-.66 2.51-.598 7.917-.598 7.972v.039c-.02 1.5.05 5.842.597 7.898a2.895 2.895 0 002.038 2.032c2.12.573 10.375.753 13.393.774 3.025-.02 11.293-.196 13.396-.746a2.897 2.897 0 002.034-2.031c.548-2.087.617-6.408.597-7.898v-.047c.028-1.518-.026-5.91-.594-7.984l-.002-.006a2.897 2.897 0 00-2.039-2.036C30.293 3.513 22.023 3.334 19 3.313c-3.024.02-11.284.196-13.393.745A2.978 2.978 0 003.568 6.12zm32.294 16.32h.001zm-20.648-2.355V8.062l10.39 6.012-10.39 6.011z" fill="#434AFF"/></svg>