<svg width="34" height="34" fill="none" xmlns="http://www.w3.org/2000/svg"><g clip-path="url(#clip0)"><path d="M12.962 34c-2.475 0-4.81-.79-6.75-2.284a11.188 11.188 0 01-1.037-.905c-2.266-2.239-3.406-5.221-3.21-8.398a10.827 10.827 0 012.724-6.516c2.13-2.386 5.069-3.7 8.273-3.7.55 0 1.107.041 1.654.122l.85.126v7.543l-1.309-.432a3.742 3.742 0 00-1.179-.19 3.723 3.723 0 00-2.672 1.118 3.701 3.701 0 00-1.072 2.671 3.714 3.714 0 001.827 3.146 3.745 3.745 0 003.095.34 3.727 3.727 0 002.566-3.542l.007-7.823V0h7.209l.009.987a7.077 7.077 0 002.825 5.599 7.04 7.04 0 004.273 1.427c.036 0 .036 0 .369.023l.926.066v7.105h-1.334c-1.92 0-3.718-.367-5.502-1.119a14.346 14.346 0 01-1.547-.767l.022 9.816a10.78 10.78 0 01-3.23 7.674 10.955 10.955 0 01-6.134 3.067c-.544.08-1.1.122-1.653.122zm0-19.811a8.988 8.988 0 00-6.788 3.035 8.83 8.83 0 00-2.222 5.312 8.759 8.759 0 002.623 6.857 8.993 8.993 0 006.387 2.614c.455 0 .913-.033 1.361-.1a8.974 8.974 0 005.026-2.513 8.797 8.797 0 002.639-6.259L21.956 9.43l1.61 1.24c.83.642 1.744 1.174 2.714 1.584 1.326.56 2.663.87 4.068.944V9.981a9.004 9.004 0 01-4.776-1.804 9.067 9.067 0 01-3.556-6.184h-3.295v13.284l-.007 7.822a5.714 5.714 0 01-3.933 5.433 5.74 5.74 0 01-4.743-.522 5.692 5.692 0 01-2.797-4.826 5.68 5.68 0 011.645-4.099 5.7 5.7 0 014.586-1.69v-3.192a9.36 9.36 0 00-.51-.014z" fill="#434AFF"/></g><defs><clipPath id="clip0"><path fill="#fff" d="M0 0h34v34H0z"/></clipPath></defs></svg>